# xmcd
#
# Track frame offsets: 
#        150
#        16132
#        32515
#        50665
#        66940
#        83817
#        99090
#        116342
#        133182
#        148372
#        166310
#        184450
#        200040
#        218712
#        234865
#        250752
#        266872
#        283712
#        299475
#        315167
#
# Disc length: 4299 seconds
#
# Revision: 1
# Processed by: cddbd v1.5.2PL0 Copyright (c) Steve Scherf et al.
# Submitted via: ExactAudioCopy v1.0b3
#
DISCID=2910c914
DTITLE=Various Artist - Dance Max 2002 - CD1
DYEAR=1900
DGENRE=Dance
TTITLE0=Mad'House - Like A Virgin (Radio Edit)
TTITLE1=Novaspace - To France (Radio Edit)
TTITLE2=The Sound Bluntz - Billie Jean (Beat Radio Mix)
TTITLE3=Anaconda - I Need A Hero (Anaconda DJ Video Edit)
TTITLE4=Beat Checkazz - The Power Of Love
TTITLE5=Mario Lopez - The Sun Always Shines On TV (Video and Radio Cut)
TTITLE6=Playahitty Vs. Sasha De Vries - The Summer Is Magic (Video Edi
TTITLE6=t)
TTITLE7=Sunfactor Feat. Eileen - I Won't Let You Down
TTITLE8=Aquagen - Hard To Say I'm Sorry (Radio Edit)
TTITLE9=Safyre - I Will Always Love You (Radio Mix)
TTITLE10=Vincent Parker - Hello
TTITLE11=DJ Quicksilver - Always On My Mind (Radio Mix)
TTITLE12=Fragrance - Don't Break My Heart
TTITLE13=Bobby Summer Vs. Time Bandits - I'm Only Shooting Love (Radio
TTITLE13=Edit)
TTITLE14=Jan Wayne - Total Eclipse Of The Heart (Radio Edit)
TTITLE15=ICQ - Message From Superfly
TTITLE16=Nightwatchers - Insomnia (Radio Edit)
TTITLE17=Scooter - Nessaja (Radio Edit)
TTITLE18=DJ Nordkurve - Wahnsinn (Single Edit)
TTITLE19=Die Piloten - Flieger Grüß Mir Die Sonne (Anspieltipp)
EXTD=
EXTT0=
EXTT1=
EXTT2=
EXTT3=
EXTT4=
EXTT5=
EXTT6=
EXTT7=
EXTT8=
EXTT9=
EXTT10=
EXTT11=
EXTT12=
EXTT13=
EXTT14=
EXTT15=
EXTT16=
EXTT17=
EXTT18=
EXTT19=
PLAYORDER=
